<?xml version="1.0" standalone="no"?>
<!DOCTYPE svg PUBLIC "-//W3C//DTD SVG 20010904//EN"
 "http://www.w3.org/TR/2001/REC-SVG-20010904/DTD/svg10.dtd">
<svg version="1.0" xmlns="http://www.w3.org/2000/svg"
 width="380.000000pt" height="384.000000pt" viewBox="0 0 380.000000 384.000000"
 preserveAspectRatio="xMidYMid meet">

<g transform="translate(0.000000,384.000000) scale(0.100000,-0.100000)"
fill="#000000" stroke="none">
<path d="M1638 3760 c-337 -53 -663 -196 -904 -398 -343 -285 -568 -678 -640
-1117 -21 -122 -23 -444 -5 -555 47 -278 139 -516 289 -740 336 -505 899 -808
1502 -810 916 -2 1684 670 1805 1579 27 197 15 465 -29 654 -56 239 -187 511
-342 708 -221 280 -509 483 -849 598 -208 70 -289 83 -545 86 -124 2 -251 0
-282 -5z m493 -154 c618 -93 1138 -528 1333 -1116 55 -167 77 -285 83 -466 11
-317 -50 -588 -194 -854 -91 -168 -157 -256 -303 -400 -252 -250 -539 -395
-910 -462 -45 -8 -150 -13 -265 -13 -161 0 -207 4 -300 24 -530 113 -944 429
-1180 901 -311 623 -191 1392 294 1893 255 264 572 430 941 492 104 18 385 18
501 1z"/>
<path d="M1718 3503 l-31 -66 -46 52 c-29 33 -54 51 -68 51 -29 0 -38 -17 -20
-38 16 -19 39 -175 26 -180 -5 -2 -9 -12 -9 -23 0 -16 7 -19 40 -19 36 0 40 3
40 24 0 13 -4 26 -9 28 -6 2 -13 28 -16 58 l-7 55 40 -45 40 -45 22 48 c28 63
43 51 38 -32 -3 -64 -2 -66 22 -69 14 -2 33 3 44 11 16 12 17 15 3 28 -19 19
-40 150 -31 195 6 32 4 34 -20 34 -23 0 -31 -9 -58 -67z"/>
<path d="M1870 3551 c0 -11 5 -21 10 -21 12 0 1 -173 -12 -178 -4 -2 -8 -12
-8 -22 0 -22 27 -30 101 -30 47 0 60 4 82 26 31 31 38 69 18 109 -8 17 -14 44
-13 60 4 53 -16 67 -101 73 -73 4 -77 4 -77 -17z m130 -45 c0 -17 -17 -24 -47
-18 -37 7 -28 32 12 32 24 0 35 -5 35 -14z m25 -100 c8 -24 6 -31 -12 -45 -22
-18 -78 -18 -89 0 -3 5 -2 25 2 44 6 35 8 36 48 33 35 -3 42 -7 51 -32z"/>
<path d="M2153 3534 c-3 -8 -3 -20 0 -28 8 -20 -27 -169 -41 -174 -16 -5 -15
-42 1 -46 42 -13 168 -38 172 -34 2 2 6 15 7 29 3 23 0 24 -48 25 -57 1 -74 8
-74 31 0 12 9 14 50 8 46 -6 50 -5 50 14 0 15 -10 23 -40 31 -42 11 -44 17
-34 69 7 32 8 32 48 25 22 -3 45 -13 49 -20 4 -8 17 -14 27 -14 15 0 20 7 20
29 0 28 -3 30 -57 41 -32 6 -73 15 -91 20 -25 7 -34 5 -39 -6z"/>
<path d="M1428 3503 c-22 -6 -24 -41 -3 -49 8 -4 15 -14 15 -24 0 -10 7 -37
16 -61 9 -24 17 -61 18 -82 0 -20 4 -37 9 -37 4 0 18 0 32 0 31 0 45 28 23 44
-20 14 -58 141 -55 181 2 31 -14 39 -55 28z"/>
<path d="M1305 3462 c-31 -17 -38 -52 -11 -52 13 0 66 -113 66 -140 0 -23 -20
-40 -47 -40 -19 0 -30 12 -53 63 -17 34 -30 74 -30 89 0 35 -10 40 -49 25 -33
-12 -40 -31 -17 -44 8 -5 32 -42 53 -83 45 -88 73 -108 127 -90 23 7 39 22 50
44 17 36 14 55 -23 140 -12 27 -19 57 -16 66 9 29 -16 40 -50 22z"/>
<path d="M2404 3465 c-3 -8 -3 -18 0 -23 8 -13 -54 -163 -71 -169 -22 -9 -15
-32 16 -47 33 -18 41 -13 41 24 0 38 7 41 52 23 31 -12 42 -13 51 -4 14 14
-12 38 -50 48 -13 3 -23 12 -23 20 0 15 29 83 36 83 14 0 62 -28 75 -43 21
-26 52 -16 47 15 -2 17 -21 29 -83 55 -93 38 -84 37 -91 18z"/>
<path d="M2647 3363 c-4 -3 -7 -15 -7 -26 0 -11 -16 -45 -35 -77 -42 -69 -46
-117 -12 -147 55 -50 102 -35 157 49 21 33 48 67 59 75 28 19 26 25 -8 46 -31
18 -44 12 -46 -25 -1 -10 -19 -43 -40 -74 -34 -49 -42 -55 -69 -52 -47 5 -47
44 1 118 21 33 44 60 51 60 20 0 14 28 -10 44 -25 18 -32 19 -41 9z"/>
<path d="M1021 3316 c-58 -44 -75 -77 -68 -135 7 -65 58 -111 123 -111 45 0
77 11 102 37 7 7 20 13 27 13 36 0 28 22 -52 139 -4 7 -62 -21 -74 -35 -18
-22 7 -47 34 -33 16 9 23 8 34 -7 18 -25 17 -30 -13 -53 -47 -37 -102 -24
-129 30 -25 48 -6 92 51 118 36 17 45 26 42 44 -4 32 -27 30 -77 -7z"/>
<path d="M2872 3198 c-18 -18 -15 -27 13 -38 14 -5 25 -15 25 -22 -1 -21 -104
-128 -123 -128 -24 0 -21 -36 5 -54 16 -11 25 -13 35 -5 7 6 10 15 8 20 -3 4
23 39 59 76 l64 68 11 -27 c12 -31 32 -36 51 -12 12 13 4 24 -51 74 -67 62
-78 67 -97 48z"/>
<path d="M827 3174 c-24 -20 -27 -27 -17 -39 7 -8 18 -15 24 -15 7 0 25 -13
41 -30 l29 -30 -35 1 c-19 0 -59 4 -89 9 -44 6 -59 4 -72 -8 -24 -21 -23 -30
6 -38 29 -7 136 -116 136 -138 0 -27 29 -30 55 -6 19 18 22 26 14 37 -6 7 -17
13 -23 13 -7 0 -32 21 -56 46 l-45 47 55 -7 c30 -3 82 -9 115 -13 l60 -6 -72
77 c-40 43 -73 84 -73 91 0 29 -25 34 -53 9z"/>
<path d="M1743 3189 c-522 -61 -946 -446 -1065 -967 -30 -129 -32 -384 -5
-510 53 -239 158 -440 320 -609 230 -240 512 -367 843 -380 283 -11 521 57
761 219 261 177 468 507 514 823 16 107 13 310 -6 411 -56 308 -220 577 -465
764 -70 53 -210 140 -225 140 -4 0 -21 6 -38 14 -191 87 -414 121 -634 95z
m456 -1174 c141 -71 209 -223 166 -370 -9 -33 -26 -72 -37 -87 -23 -33 -16
-53 13 -37 17 9 25 5 52 -24 18 -19 78 -74 135 -122 71 -60 102 -94 102 -109
0 -54 -74 -121 -120 -109 -10 3 -58 51 -108 106 -49 56 -102 114 -117 129 -20
20 -26 34 -21 51 8 34 -2 39 -33 18 -50 -34 -95 -46 -176 -45 -66 0 -89 5
-132 27 -266 137 -231 513 56 594 65 18 159 9 220 -22z"/>
<path d="M1990 1991 c-76 -23 -142 -80 -178 -151 -27 -55 -24 -172 7 -232 45
-88 124 -138 230 -146 60 -4 75 -1 122 23 30 14 65 36 77 48 41 38 75 116 80
188 4 57 1 73 -24 123 -32 65 -67 99 -139 132 -51 24 -124 30 -175 15z m60
-78 c0 -10 11 -26 24 -35 19 -14 31 -15 56 -8 44 13 63 -9 55 -64 -4 -28 -1
-44 11 -58 24 -25 9 -88 -25 -104 -13 -7 -28 -22 -35 -35 -16 -32 -70 -47 -94
-26 -11 11 -30 15 -50 13 -40 -6 -84 25 -64 45 6 7 12 23 12 34 0 24 -31 65
-49 65 -14 0 -14 38 0 78 7 22 19 33 40 37 22 5 29 12 29 30 0 16 8 26 28 33
42 16 62 14 62 -5z m257 -211 c-14 -136 -144 -236 -281 -216 l-51 7 71 12 c82
15 118 31 163 77 46 46 72 101 78 166 5 48 7 52 15 31 6 -13 7 -48 5 -77z"/>
<path d="M2034 1793 c-14 -3 -23 -16 -31 -43 -9 -36 -8 -41 16 -64 37 -36 81
-24 97 25 10 29 9 37 -10 61 -21 26 -30 29 -72 21z"/>
<path d="M2389 1328 c123 -148 129 -154 142 -141 10 10 -8 33 -88 113 -56 55
-105 100 -108 100 -3 0 21 -33 54 -72z"/>
<path d="M3060 3016 c0 -17 -132 -126 -153 -126 -9 0 -18 -4 -21 -9 -6 -9 100
-151 113 -151 4 0 15 8 24 18 13 14 14 21 5 30 -7 7 -17 12 -23 12 -16 0 -57
58 -50 70 11 18 34 11 51 -15 9 -14 22 -25 30 -25 25 0 25 21 -1 52 l-27 32
33 28 c18 15 37 28 42 28 13 0 51 -49 57 -74 7 -26 21 -30 45 -12 18 13 17 15
-15 57 -71 92 -110 123 -110 85z"/>
<path d="M351 2067 c-41 -21 -63 -60 -63 -111 0 -83 56 -133 139 -123 83 9
129 84 104 167 -20 67 -113 102 -180 67z"/>
<path d="M3273 2059 c-53 -34 -68 -109 -33 -166 36 -60 105 -78 170 -45 43 21
60 53 60 116 0 41 -5 53 -34 82 -29 29 -41 34 -82 34 -32 0 -60 -7 -81 -21z"/>
<path d="M774 1139 c-19 -21 -19 -22 1 -33 27 -16 75 -63 75 -74 0 -5 -7 -13
-17 -16 -11 -4 -25 4 -43 25 -16 19 -31 29 -38 25 -18 -11 -15 -31 8 -51 27
-24 25 -36 -10 -70 l-30 -29 -30 29 c-16 16 -30 37 -30 47 0 25 -28 34 -46 16
-13 -13 -9 -22 33 -74 71 -88 71 -88 88 -74 8 7 15 18 16 24 0 15 113 106 132
106 8 0 20 6 26 13 8 11 -3 30 -50 85 -33 40 -61 72 -63 72 -2 0 -11 -10 -22
-21z"/>
<path d="M2900 1065 c-24 -26 -21 -55 5 -55 15 0 98 -81 91 -88 -2 -1 -43 2
-92 8 -140 16 -137 19 -53 -67 42 -43 79 -86 82 -95 8 -24 30 -23 52 2 18 20
14 50 -7 50 -15 0 -85 57 -78 63 3 2 44 0 92 -6 74 -8 89 -7 103 6 21 22 19
34 -7 42 -27 8 -138 114 -138 131 0 6 -6 17 -13 23 -11 8 -19 5 -37 -14z"/>
<path d="M971 937 c-6 -8 -8 -17 -4 -20 3 -4 -20 -36 -52 -73 l-58 -66 -23 29
c-23 27 -24 28 -39 9 -8 -11 -15 -23 -15 -26 0 -9 127 -110 138 -110 5 0 15 7
22 15 10 12 10 18 0 30 -7 8 -15 13 -19 11 -4 -3 -13 -1 -21 4 -10 6 -1 23 41
74 30 35 61 65 70 65 28 1 31 31 7 52 -28 22 -32 23 -47 6z"/>
<path d="M2632 835 c-28 -20 -52 -39 -52 -44 0 -19 82 -121 93 -115 45 26 65
46 60 59 -6 18 -34 20 -51 3 -8 -8 -14 -4 -24 17 -11 25 -10 29 16 52 23 19
36 23 60 19 47 -10 76 -43 76 -87 0 -42 -18 -65 -67 -86 -34 -14 -43 -39 -21
-61 8 -8 18 -6 39 11 15 12 39 30 53 40 63 44 56 156 -12 202 -54 37 -104 34
-170 -10z"/>
<path d="M1114 799 c-11 -6 -35 -35 -53 -66 -19 -30 -44 -65 -57 -76 -31 -27
-30 -33 5 -51 25 -13 31 -14 41 -1 6 8 9 18 6 24 -9 14 61 129 84 136 27 9 60
-12 60 -38 0 -30 -55 -124 -80 -137 -27 -14 -25 -34 5 -54 30 -20 45 -14 45
18 0 12 16 48 35 80 45 75 46 115 4 150 -32 27 -60 31 -95 15z"/>
<path d="M2464 740 c-25 -10 -64 -57 -64 -77 0 -8 14 -46 31 -84 16 -39 28
-76 26 -82 -2 -7 0 -20 4 -29 8 -15 13 -15 42 -3 17 7 32 18 31 24 -2 27 -5
31 -16 31 -15 1 -68 109 -68 137 0 26 19 43 47 43 18 0 29 -13 53 -60 16 -33
30 -73 30 -89 0 -39 13 -45 50 -26 34 18 39 40 11 54 -10 6 -33 40 -50 76 -24
53 -37 69 -65 80 -20 8 -37 15 -38 14 -2 0 -13 -4 -24 -9z"/>
<path d="M1426 683 c-3 -4 -6 -18 -6 -33 0 -37 -6 -40 -52 -24 -22 7 -44 11
-49 8 -20 -12 -6 -32 31 -43 23 -7 40 -18 40 -27 0 -19 -27 -84 -35 -84 -11 0
-69 32 -83 46 -7 8 -18 14 -23 14 -8 0 -25 -49 -18 -53 18 -12 144 -57 159
-57 15 0 20 7 20 27 0 38 52 173 67 173 7 0 13 9 13 19 0 19 -52 46 -64 34z"/>
<path d="M2278 673 c-22 -5 -24 -41 -4 -49 18 -7 60 -138 57 -181 -2 -36 2
-38 48 -22 34 12 40 33 14 47 -20 12 -54 112 -56 167 -2 41 -16 50 -59 38z"/>
<path d="M1519 632 c-7 -18 -6 -28 3 -34 17 -10 26 -10 32 1 4 5 23 5 46 -1
30 -8 40 -15 37 -27 -3 -17 -4 -17 -53 -7 -24 5 -33 3 -38 -9 -9 -25 -1 -32
44 -39 43 -7 43 -6 23 -78 -6 -23 -37 -22 -88 2 l-40 19 -7 -27 c-4 -15 -4
-29 0 -33 12 -11 173 -40 183 -33 6 3 8 18 4 32 -7 34 19 175 34 180 6 2 11
12 11 23 0 20 -1 20 -113 43 l-68 14 -10 -26z"/>
<path d="M2188 643 c-28 -4 -38 -29 -19 -48 12 -13 30 -105 21 -105 -4 0 -22
16 -39 35 -17 19 -33 35 -35 35 -3 0 -15 -21 -26 -47 -21 -47 -22 -47 -32 -23
-5 14 -7 46 -4 72 3 26 1 50 -3 52 -4 3 -24 3 -44 -1 -27 -4 -34 -9 -29 -22 3
-9 9 -19 14 -22 13 -8 37 -163 27 -174 -5 -5 -9 -17 -9 -28 0 -14 6 -18 31
-15 28 3 34 9 56 66 14 34 28 62 32 61 3 0 24 -22 46 -49 26 -31 48 -49 63
-49 27 -1 39 23 22 44 -19 22 -40 167 -28 182 11 14 4 44 -9 42 -4 -1 -20 -4
-35 -6z"/>
<path d="M1765 585 c-30 -29 -34 -88 -9 -123 9 -13 13 -30 10 -38 -8 -22 15
-64 38 -69 106 -21 159 -11 136 25 -13 20 -13 177 0 185 6 3 10 15 10 26 0 17
-7 19 -80 19 -73 0 -83 -3 -105 -25z m125 -65 l0 -50 -37 0 c-38 0 -73 23 -73
48 0 29 32 52 72 52 l38 0 0 -50z m-10 -110 c0 -16 -7 -20 -35 -20 -28 0 -35
4 -35 20 0 16 7 20 35 20 28 0 35 -4 35 -20z"/>
</g>
</svg>
